mtllib Hunter.mtl
# MagicaVoxel @ Ephtracy
# group
g Hunter
# material
# normals
vn -1 0 0
vn 1 0 0
vn 0 0 1
vn 0 0 -1
vn 0 -1 0
vn 0 1 0
# texcoords
vt 0.0605469 0.5
vt 0.533203 0.5
vt 0.537109 0.5
vt 0.693359 0.5
vt 0.873047 0.5
vt 0.912109 0.5
vt 0.958984 0.5
vt 0.970703 0.5
vt 0.994141 0.5
# verts
v -0.3 0.4 0.1
v -0.3 0.4 0
v -0.3 0.5 0.1
v -0.3 0.5 0
v -0.3 0.9 0.1
v -0.3 0.9 0
v -0.2 0 0.1
v -0.2 0 0
v -0.2 0.1 0.1
v -0.2 0.1 0
v -0.2 0.3 0.2
v -0.2 0.3 0.1
v -0.2 0.3 0
v -0.2 0.3 -0.1
v -0.2 0.4 0.2
v -0.2 0.4 0.1
v -0.2 0.4 0
v -0.2 0.4 -0.1
v -0.2 0.5 0.2
v -0.2 0.5 0.1
v -0.2 0.5 0
v -0.2 0.5 -0.1
v -0.2 0.6 0
v -0.2 0.6 -0.1
v -0.2 0.7 0
v -0.2 0.7 -0.1
v -0.2 0.8 0
v -0.2 0.8 -0.1
v -0.2 0.9 0.1
v -0.2 0.9 0
v -0.2 0.9 -0.1
v -0.2 1 0.2
v -0.2 1 -0.1
v -0.2 1.3 0.3
v -0.2 1.3 -0.2
v -0.2 1.4 0.3
v -0.2 1.4 -0.2
v -0.1 1 0.2
v -0.1 1 0.1
v -0.1 1 0
v -0.1 1.1 0
v -0.1 1.1 -0.1
v -0.1 1.3 0.2
v -0.1 1.3 0.1
v -0.1 1.3 -0.1
v -0.1 1.4 0.2
v -0.1 1.4 -0.1
v -0.1 1.5 0.2
v -0.1 1.5 -0.1
v 0.1 0 0.1
v 0.1 0 0
v 0.1 0.1 0.1
v 0.1 0.1 0
v 0.1 0.3 0.1
v 0.1 0.3 0
v -0.1 0 0.1
v -0.1 0 0
v -0.1 0.1 0.1
v -0.1 0.1 0
v -0.1 0.3 0.1
v -0.1 0.3 0
v 0.1 1 0.2
v 0.1 1 0.1
v 0.1 1 0
v 0.1 1.1 0
v 0.1 1.1 -0.1
v 0.1 1.3 0.2
v 0.1 1.3 0.1
v 0.1 1.3 -0.1
v 0.1 1.4 0.2
v 0.1 1.4 -0.1
v 0.1 1.5 0.2
v 0.1 1.5 -0.1
v 0.2 0 0.1
v 0.2 0 0
v 0.2 0.1 0.1
v 0.2 0.1 0
v 0.2 0.3 0.2
v 0.2 0.3 0.1
v 0.2 0.3 0
v 0.2 0.3 -0.1
v 0.2 0.4 0.2
v 0.2 0.4 0.1
v 0.2 0.4 0
v 0.2 0.4 -0.1
v 0.2 0.5 0.2
v 0.2 0.5 0.1
v 0.2 0.5 0
v 0.2 0.5 -0.1
v 0.2 0.6 0
v 0.2 0.6 -0.1
v 0.2 0.7 0
v 0.2 0.7 -0.1
v 0.2 0.8 0
v 0.2 0.8 -0.1
v 0.2 0.9 0.1
v 0.2 0.9 0
v 0.2 0.9 -0.1
v 0.2 1 0.2
v 0.2 1 -0.1
v 0.2 1.3 0.3
v 0.2 1.3 -0.2
v 0.2 1.4 0.3
v 0.2 1.4 -0.2
v 0.3 0.4 0.1
v 0.3 0.4 0
v 0.3 0.5 0.1
v 0.3 0.5 0
v 0.3 0.9 0.1
v 0.3 0.9 0
v -0.2 1.3 0.3
v -0.2 1.4 0.3
v 0.2 1.3 0.3
v 0.2 1.4 0.3
v -0.2 0.3 0.2
v -0.2 0.4 0.2
v -0.2 0.5 0.2
v -0.2 1 0.2
v -0.1 1 0.2
v -0.1 1.3 0.2
v -0.1 1.4 0.2
v -0.1 1.5 0.2
v 0.1 1 0.2
v 0.1 1.3 0.2
v 0.1 1.4 0.2
v 0.1 1.5 0.2
v 0.2 0.3 0.2
v 0.2 0.4 0.2
v 0.2 0.5 0.2
v 0.2 1 0.2
v -0.3 0.4 0.1
v -0.3 0.5 0.1
v -0.3 0.9 0.1
v -0.2 0 0.1
v -0.2 0.1 0.1
v -0.2 0.3 0.1
v -0.2 0.4 0.1
v -0.2 0.5 0.1
v -0.2 0.9 0.1
v -0.1 0 0.1
v -0.1 0.1 0.1
v -0.1 0.3 0.1
v 0.1 0 0.1
v 0.1 0.1 0.1
v 0.1 0.3 0.1
v 0.2 0 0.1
v 0.2 0.1 0.1
v 0.2 0.3 0.1
v 0.2 0.4 0.1
v 0.2 0.5 0.1
v 0.2 0.9 0.1
v 0.3 0.4 0.1
v 0.3 0.5 0.1
v 0.3 0.9 0.1
v -0.3 0.4 0
v -0.3 0.5 0
v -0.3 0.9 0
v -0.2 0 0
v -0.2 0.1 0
v -0.2 0.3 0
v -0.2 0.4 0
v -0.2 0.5 0
v -0.2 0.6 0
v -0.2 0.7 0
v -0.2 0.8 0
v -0.2 0.9 0
v -0.1 0 0
v -0.1 0.1 0
v -0.1 0.3 0
v -0.1 1 0
v -0.1 1.1 0
v 0.1 0 0
v 0.1 0.1 0
v 0.1 0.3 0
v 0.1 1 0
v 0.1 1.1 0
v 0.2 0 0
v 0.2 0.1 0
v 0.2 0.3 0
v 0.2 0.4 0
v 0.2 0.5 0
v 0.2 0.6 0
v 0.2 0.7 0
v 0.2 0.8 0
v 0.2 0.9 0
v 0.3 0.4 0
v 0.3 0.5 0
v 0.3 0.9 0
v -0.2 0.3 -0.1
v -0.2 0.4 -0.1
v -0.2 0.5 -0.1
v -0.2 0.6 -0.1
v -0.2 0.7 -0.1
v -0.2 0.8 -0.1
v -0.2 0.9 -0.1
v -0.2 1 -0.1
v -0.1 0.4 -0.1
v -0.1 0.5 -0.1
v -0.1 0.6 -0.1
v -0.1 0.7 -0.1
v -0.1 0.8 -0.1
v -0.1 0.9 -0.1
v -0.1 1 -0.1
v -0.1 1.1 -0.1
v -0.1 1.3 -0.1
v -0.1 1.4 -0.1
v -0.1 1.5 -0.1
v 0.1 0.4 -0.1
v 0.1 0.5 -0.1
v 0.1 0.6 -0.1
v 0.1 0.7 -0.1
v 0.1 0.8 -0.1
v 0.1 0.9 -0.1
v 0.1 1 -0.1
v 0.1 1.1 -0.1
v 0.1 1.3 -0.1
v 0.1 1.4 -0.1
v 0.1 1.5 -0.1
v 0.2 0.3 -0.1
v 0.2 0.4 -0.1
v 0.2 0.5 -0.1
v 0.2 0.6 -0.1
v 0.2 0.7 -0.1
v 0.2 0.8 -0.1
v 0.2 0.9 -0.1
v 0.2 1 -0.1
v -0.2 1.3 -0.2
v -0.2 1.4 -0.2
v 0.2 1.3 -0.2
v 0.2 1.4 -0.2
v -0.2 0 0.1
v -0.1 0 0.1
v 0.1 0 0.1
v 0.2 0 0.1
v -0.2 0 0
v -0.1 0 0
v 0.1 0 0
v 0.2 0 0
v -0.2 0.3 0.2
v 0.2 0.3 0.2
v -0.2 0.3 0.1
v -0.1 0.3 0.1
v 0.1 0.3 0.1
v 0.2 0.3 0.1
v -0.2 0.3 0
v -0.1 0.3 0
v 0.1 0.3 0
v 0.2 0.3 0
v -0.2 0.3 -0.1
v 0.2 0.3 -0.1
v -0.3 0.4 0.1
v -0.2 0.4 0.1
v 0.2 0.4 0.1
v 0.3 0.4 0.1
v -0.3 0.4 0
v -0.2 0.4 0
v 0.2 0.4 0
v 0.3 0.4 0
v -0.1 1.1 0
v 0.1 1.1 0
v -0.1 1.1 -0.1
v 0.1 1.1 -0.1
v -0.2 1.3 0.3
v 0.2 1.3 0.3
v -0.1 1.3 0.2
v 0.1 1.3 0.2
v -0.1 1.3 0.1
v 0.1 1.3 0.1
v -0.1 1.3 -0.1
v 0.1 1.3 -0.1
v -0.2 1.3 -0.2
v 0.2 1.3 -0.2
v -0.3 0.9 0.1
v -0.2 0.9 0.1
v 0.2 0.9 0.1
v 0.3 0.9 0.1
v -0.3 0.9 0
v -0.2 0.9 0
v 0.2 0.9 0
v 0.3 0.9 0
v -0.2 1 0.2
v -0.1 1 0.2
v 0.1 1 0.2
v 0.2 1 0.2
v -0.1 1 0.1
v 0.1 1 0.1
v -0.1 1 0
v 0.1 1 0
v -0.2 1 -0.1
v -0.1 1 -0.1
v 0.1 1 -0.1
v 0.2 1 -0.1
v -0.2 1.4 0.3
v 0.2 1.4 0.3
v -0.1 1.4 0.2
v 0.1 1.4 0.2
v -0.1 1.4 -0.1
v 0.1 1.4 -0.1
v -0.2 1.4 -0.2
v 0.2 1.4 -0.2
v -0.1 1.5 0.2
v 0.1 1.5 0.2
v -0.1 1.5 -0.1
v 0.1 1.5 -0.1
# faces
usemtl M1
f 3/1/1 2/1/1 1/1/1
f 4/1/1 2/1/1 3/1/1
f 41/1/1 40/1/1 39/1/1
f 44/1/1 42/1/1 41/1/1
f 44/1/1 41/1/1 39/1/1
f 45/1/1 42/1/1 44/1/1
f 63/1/2 64/1/2 65/1/2
f 65/1/2 66/1/2 68/1/2
f 63/1/2 65/1/2 68/1/2
f 68/1/2 66/1/2 69/1/2
f 105/1/2 106/1/2 107/1/2
f 107/1/2 106/1/2 108/1/2
f 137/1/3 132/1/3 131/1/3
f 138/1/3 132/1/3 137/1/3
f 152/1/3 150/1/3 149/1/3
f 153/1/3 150/1/3 152/1/3
f 155/1/4 156/1/4 161/1/4
f 161/1/4 156/1/4 162/1/4
f 170/1/4 171/1/4 175/1/4
f 175/1/4 171/1/4 176/1/4
f 180/1/4 181/1/4 186/1/4
f 186/1/4 181/1/4 187/1/4
f 204/1/4 205/1/4 215/1/4
f 215/1/4 205/1/4 216/1/4
f 255/1/5 252/1/5 251/1/5
f 256/1/5 252/1/5 255/1/5
f 257/1/5 254/1/5 253/1/5
f 258/1/5 254/1/5 257/1/5
f 261/1/5 260/1/5 259/1/5
f 262/1/5 260/1/5 261/1/5
usemtl M3
f 5/3/1 4/3/1 3/3/1
f 6/3/1 4/3/1 5/3/1
f 23/3/1 22/3/1 21/3/1
f 24/3/1 22/3/1 23/3/1
f 27/3/1 26/3/1 25/3/1
f 28/3/1 26/3/1 27/3/1
f 29/3/1 20/3/1 19/3/1
f 32/3/1 29/3/1 19/3/1
f 32/3/1 30/3/1 29/3/1
f 32/3/1 31/3/1 30/3/1
f 33/3/1 31/3/1 32/3/1
f 88/3/2 89/3/2 90/3/2
f 90/3/2 89/3/2 91/3/2
f 92/3/2 93/3/2 94/3/2
f 94/3/2 93/3/2 95/3/2
f 86/3/2 87/3/2 96/3/2
f 86/3/2 96/3/2 99/3/2
f 96/3/2 97/3/2 99/3/2
f 97/3/2 98/3/2 99/3/2
f 99/3/2 98/3/2 100/3/2
f 107/3/2 108/3/2 109/3/2
f 109/3/2 108/3/2 110/3/2
f 119/3/3 118/3/3 117/3/3
f 123/3/3 119/3/3 117/3/3
f 129/3/3 123/3/3 117/3/3
f 130/3/3 123/3/3 129/3/3
f 138/3/3 133/3/3 132/3/3
f 139/3/3 133/3/3 138/3/3
f 153/3/3 151/3/3 150/3/3
f 154/3/3 151/3/3 153/3/3
f 156/3/4 157/3/4 162/3/4
f 162/3/4 157/3/4 163/3/4
f 163/3/4 157/3/4 164/3/4
f 164/3/4 157/3/4 165/3/4
f 165/3/4 157/3/4 166/3/4
f 184/3/4 185/3/4 187/3/4
f 183/3/4 184/3/4 187/3/4
f 181/3/4 182/3/4 187/3/4
f 182/3/4 183/3/4 187/3/4
f 187/3/4 185/3/4 188/3/4
f 191/3/4 192/3/4 198/3/4
f 198/3/4 192/3/4 199/3/4
f 193/3/4 194/3/4 200/3/4
f 200/3/4 194/3/4 201/3/4
f 195/3/4 196/3/4 202/3/4
f 202/3/4 196/3/4 203/3/4
f 209/3/4 210/3/4 221/3/4
f 221/3/4 210/3/4 222/3/4
f 211/3/4 212/3/4 223/3/4
f 223/3/4 212/3/4 224/3/4
f 213/3/4 214/3/4 225/3/4
f 225/3/4 214/3/4 226/3/4
f 273/3/6 274/3/6 277/3/6
f 277/3/6 274/3/6 278/3/6
f 275/3/6 276/3/6 279/3/6
f 279/3/6 276/3/6 280/3/6
f 281/3/6 282/3/6 285/3/6
f 283/3/6 284/3/6 286/3/6
f 281/3/6 285/3/6 287/3/6
f 286/3/6 284/3/6 288/3/6
f 281/3/6 287/3/6 289/3/6
f 289/3/6 287/3/6 290/3/6
f 288/3/6 284/3/6 291/3/6
f 291/3/6 284/3/6 292/3/6
usemtl M9
f 9/9/1 8/9/1 7/9/1
f 10/9/1 8/9/1 9/9/1
f 25/9/1 24/9/1 23/9/1
f 26/9/1 24/9/1 25/9/1
f 30/9/1 28/9/1 27/9/1
f 31/9/1 28/9/1 30/9/1
f 52/9/1 51/9/1 50/9/1
f 53/9/1 51/9/1 52/9/1
f 56/9/2 57/9/2 58/9/2
f 58/9/2 57/9/2 59/9/2
f 74/9/2 75/9/2 76/9/2
f 76/9/2 75/9/2 77/9/2
f 90/9/2 91/9/2 92/9/2
f 92/9/2 91/9/2 93/9/2
f 94/9/2 95/9/2 97/9/2
f 97/9/2 95/9/2 98/9/2
f 140/9/3 135/9/3 134/9/3
f 141/9/3 135/9/3 140/9/3
f 146/9/3 144/9/3 143/9/3
f 147/9/3 144/9/3 146/9/3
f 158/9/4 159/9/4 167/9/4
f 167/9/4 159/9/4 168/9/4
f 172/9/4 173/9/4 177/9/4
f 177/9/4 173/9/4 178/9/4
f 192/9/4 193/9/4 199/9/4
f 199/9/4 193/9/4 200/9/4
f 194/9/4 195/9/4 201/9/4
f 201/9/4 195/9/4 202/9/4
f 210/9/4 211/9/4 222/9/4
f 222/9/4 211/9/4 223/9/4
f 212/9/4 213/9/4 224/9/4
f 224/9/4 213/9/4 225/9/4
f 235/9/5 232/9/5 231/9/5
f 236/9/5 232/9/5 235/9/5
f 237/9/5 234/9/5 233/9/5
f 238/9/5 234/9/5 237/9/5
usemtl M4
f 12/4/1 10/4/1 9/4/1
f 13/4/1 10/4/1 12/4/1
f 15/4/1 13/4/1 12/4/1
f 15/4/1 14/4/1 13/4/1
f 15/4/1 12/4/1 11/4/1
f 16/4/1 14/4/1 15/4/1
f 17/4/1 14/4/1 16/4/1
f 18/4/1 14/4/1 17/4/1
f 54/4/1 53/4/1 52/4/1
f 55/4/1 53/4/1 54/4/1
f 58/4/2 59/4/2 60/4/2
f 60/4/2 59/4/2 61/4/2
f 76/4/2 77/4/2 79/4/2
f 79/4/2 77/4/2 80/4/2
f 79/4/2 80/4/2 82/4/2
f 80/4/2 81/4/2 82/4/2
f 78/4/2 79/4/2 82/4/2
f 82/4/2 81/4/2 83/4/2
f 83/4/2 81/4/2 84/4/2
f 84/4/2 81/4/2 85/4/2
f 127/4/3 116/4/3 115/4/3
f 128/4/3 116/4/3 127/4/3
f 141/4/3 136/4/3 135/4/3
f 142/4/3 136/4/3 141/4/3
f 147/4/3 145/4/3 144/4/3
f 148/4/3 145/4/3 147/4/3
f 159/4/4 160/4/4 168/4/4
f 168/4/4 160/4/4 169/4/4
f 173/4/4 174/4/4 178/4/4
f 178/4/4 174/4/4 179/4/4
f 189/4/4 190/4/4 197/4/4
f 189/4/4 197/4/4 208/4/4
f 189/4/4 208/4/4 219/4/4
f 219/4/4 208/4/4 220/4/4
f 241/4/5 240/4/5 239/4/5
f 242/4/5 240/4/5 241/4/5
f 243/4/5 240/4/5 242/4/5
f 244/4/5 240/4/5 243/4/5
f 246/4/5 243/4/5 242/4/5
f 247/4/5 243/4/5 246/4/5
f 249/4/5 246/4/5 245/4/5
f 249/4/5 248/4/5 247/4/5
f 249/4/5 247/4/5 246/4/5
f 250/4/5 248/4/5 249/4/5
usemtl M6
f 19/6/1 16/6/1 15/6/1
f 20/6/1 16/6/1 19/6/1
f 21/6/1 18/6/1 17/6/1
f 22/6/1 18/6/1 21/6/1
f 82/6/2 83/6/2 86/6/2
f 86/6/2 83/6/2 87/6/2
f 84/6/2 85/6/2 88/6/2
f 88/6/2 85/6/2 89/6/2
f 128/6/3 117/6/3 116/6/3
f 129/6/3 117/6/3 128/6/3
f 190/6/4 191/6/4 197/6/4
f 197/6/4 191/6/4 198/6/4
f 208/6/4 209/6/4 220/6/4
f 220/6/4 209/6/4 221/6/4
usemtl M2
f 36/2/1 35/2/1 34/2/1
f 37/2/1 35/2/1 36/2/1
f 48/2/1 47/2/1 46/2/1
f 49/2/1 47/2/1 48/2/1
f 70/2/2 71/2/2 72/2/2
f 72/2/2 71/2/2 73/2/2
f 101/2/2 102/2/2 103/2/2
f 103/2/2 102/2/2 104/2/2
f 113/2/3 112/2/3 111/2/3
f 114/2/3 112/2/3 113/2/3
f 125/2/3 122/2/3 121/2/3
f 126/2/3 122/2/3 125/2/3
f 206/2/4 207/2/4 217/2/4
f 217/2/4 207/2/4 218/2/4
f 227/2/4 228/2/4 229/2/4
f 229/2/4 228/2/4 230/2/4
f 265/2/5 264/2/5 263/2/5
f 266/2/5 264/2/5 265/2/5
f 267/2/5 265/2/5 263/2/5
f 268/2/5 264/2/5 266/2/5
f 269/2/5 267/2/5 263/2/5
f 270/2/5 264/2/5 268/2/5
f 271/2/5 269/2/5 263/2/5
f 271/2/5 270/2/5 269/2/5
f 272/2/5 264/2/5 270/2/5
f 272/2/5 270/2/5 271/2/5
f 293/2/6 294/2/6 295/2/6
f 295/2/6 294/2/6 296/2/6
f 293/2/6 295/2/6 297/2/6
f 296/2/6 294/2/6 298/2/6
f 293/2/6 297/2/6 299/2/6
f 297/2/6 298/2/6 299/2/6
f 298/2/6 294/2/6 300/2/6
f 299/2/6 298/2/6 300/2/6
f 301/2/6 302/2/6 303/2/6
f 303/2/6 302/2/6 304/2/6
usemtl M5
f 43/5/1 39/5/1 38/5/1
f 44/5/1 39/5/1 43/5/1
f 62/5/2 63/5/2 67/5/2
f 67/5/2 63/5/2 68/5/2
f 123/5/3 120/5/3 119/5/3
f 124/5/3 120/5/3 123/5/3
usemtl M7
f 197/7/4 198/7/4 208/7/4
f 208/7/4 198/7/4 209/7/4
usemtl M8
f 200/8/4 201/8/4 209/8/4
f 199/8/4 200/8/4 209/8/4
f 202/8/4 203/8/4 209/8/4
f 201/8/4 202/8/4 209/8/4
f 198/8/4 199/8/4 209/8/4
f 209/8/4 203/8/4 210/8/4
f 210/8/4 203/8/4 211/8/4
f 211/8/4 203/8/4 212/8/4
f 212/8/4 203/8/4 213/8/4
f 213/8/4 203/8/4 214/8/4
f 287/8/6 288/8/6 290/8/6
f 290/8/6 288/8/6 291/8/6
