# Blender v2.83.18 OBJ File: ''
# www.blender.org
mtllib Rabbit.mtl
o Rabbit
g Rabbit
v 0.200000 0.100000 -0.000000
v 0.200000 0.000000 0.000000
v 0.200000 -0.000000 -0.200000
v 0.200000 0.200000 -0.200000
v 0.200000 0.100000 0.100000
v 0.200000 0.200000 -0.100000
v 0.200000 0.200000 0.100000
v 0.200000 0.300000 -0.100000
v 0.200000 0.300000 -0.000000
v 0.200000 0.300000 0.100000
v 0.100000 0.300000 -0.100000
v 0.100000 0.200000 -0.100000
v 0.100000 0.200000 -0.200000
v 0.100000 0.400000 -0.200000
v 0.100000 0.300000 -0.000000
v 0.100000 0.400000 -0.100000
v 0.100000 0.400000 0.200000
v 0.100000 0.300000 0.300000
v 0.100000 0.300000 0.100000
v 0.100000 0.400000 0.300000
v 0.100000 0.500000 -0.100000
v 0.100000 0.500000 -0.000000
v 0.100000 0.500000 0.100000
v 0.100000 0.500000 0.200000
v 0.100000 0.600000 -0.000000
v 0.100000 0.600000 0.100000
v -0.100000 0.200000 -0.200000
v -0.100000 0.200000 -0.100000
v -0.100000 0.300000 -0.100000
v -0.100000 0.400000 -0.200000
v -0.100000 0.300000 -0.000000
v -0.100000 0.400000 -0.100000
v -0.100000 0.300000 0.100000
v -0.100000 0.300000 0.300000
v -0.100000 0.400000 0.200000
v -0.100000 0.400000 0.300000
v -0.100000 0.500000 -0.100000
v -0.100000 0.500000 -0.000000
v -0.100000 0.500000 0.100000
v -0.100000 0.500000 0.200000
v -0.100000 0.600000 -0.000000
v -0.100000 0.600000 0.100000
v -0.200000 -0.000000 -0.200000
v -0.200000 0.000000 0.000000
v -0.200000 0.100000 -0.000000
v -0.200000 0.200000 -0.200000
v -0.200000 0.100000 0.100000
v -0.200000 0.200000 -0.100000
v -0.200000 0.200000 0.100000
v -0.200000 0.300000 -0.100000
v -0.200000 0.300000 -0.000000
v -0.200000 0.300000 0.100000
v 0.100000 -0.000000 -0.200000
v 0.200000 0.200000 -0.200000
v 0.200000 -0.000000 -0.200000
v 0.100000 0.200000 -0.200000
v -0.100000 0.200000 -0.200000
v 0.100000 0.400000 -0.200000
v -0.100000 0.400000 -0.200000
v -0.200000 -0.000000 -0.200000
v -0.100000 -0.000000 -0.200000
v -0.200000 0.200000 -0.200000
v 0.100000 0.200000 -0.100000
v 0.200000 0.300000 -0.100000
v 0.200000 0.200000 -0.100000
v 0.100000 0.300000 -0.100000
v -0.100000 0.400000 -0.100000
v 0.100000 0.500000 -0.100000
v 0.100000 0.400000 -0.100000
v -0.100000 0.500000 -0.100000
v -0.200000 0.200000 -0.100000
v -0.100000 0.300000 -0.100000
v -0.100000 0.200000 -0.100000
v -0.200000 0.300000 -0.100000
v -0.100000 0.500000 -0.000000
v 0.100000 0.600000 -0.000000
v 0.100000 0.500000 -0.000000
v -0.100000 0.600000 -0.000000
v 0.200000 0.200000 0.100000
v 0.200000 0.300000 0.100000
v 0.100000 0.200000 0.100000
v 0.100000 0.300000 0.100000
v -0.100000 0.200000 0.100000
v -0.100000 0.300000 0.100000
v 0.100000 0.500000 0.100000
v 0.100000 0.600000 0.100000
v -0.100000 0.500000 0.100000
v -0.100000 0.600000 0.100000
v -0.200000 0.200000 0.100000
v -0.200000 0.300000 0.100000
v 0.100000 0.100000 0.200000
v 0.100000 0.200000 0.200000
v -0.100000 0.100000 0.200000
v -0.100000 0.200000 0.200000
v 0.100000 0.400000 0.200000
v 0.100000 0.500000 0.200000
v -0.100000 0.400000 0.200000
v -0.100000 0.500000 0.200000
v 0.100000 0.300000 0.300000
v 0.100000 0.400000 0.300000
v -0.100000 0.300000 0.300000
v -0.100000 0.400000 0.300000
v 0.200000 0.000000 0.000000
v 0.100000 -0.000000 -0.200000
v 0.200000 -0.000000 -0.200000
v -0.200000 -0.000000 -0.200000
v -0.100000 -0.000000 -0.200000
v -0.200000 0.000000 0.000000
v 0.100000 0.100000 0.200000
v -0.100000 0.100000 0.100000
v 0.100000 0.100000 0.100000
v -0.100000 0.100000 0.200000
v 0.100000 0.300000 0.300000
v -0.100000 0.300000 0.100000
v 0.100000 0.300000 0.100000
v -0.100000 0.300000 0.300000
v 0.200000 0.200000 -0.200000
v 0.100000 0.200000 -0.200000
v 0.200000 0.200000 -0.100000
v 0.100000 0.200000 -0.100000
v -0.100000 0.200000 -0.200000
v -0.200000 0.200000 -0.200000
v -0.100000 0.200000 -0.100000
v -0.200000 0.200000 -0.100000
v 0.100000 0.200000 0.100000
v -0.100000 0.200000 0.100000
v 0.100000 0.200000 0.200000
v -0.100000 0.200000 0.200000
v 0.200000 0.300000 -0.100000
v 0.100000 0.300000 -0.100000
v 0.200000 0.300000 -0.000000
v 0.100000 0.300000 -0.000000
v -0.100000 0.300000 -0.100000
v -0.200000 0.300000 -0.100000
v -0.100000 0.300000 -0.000000
v -0.200000 0.300000 -0.000000
v 0.100000 0.400000 -0.200000
v -0.100000 0.400000 -0.200000
v 0.100000 0.400000 -0.100000
v -0.100000 0.400000 -0.100000
v 0.100000 0.400000 0.200000
v -0.100000 0.400000 0.200000
v 0.100000 0.400000 0.300000
v -0.100000 0.400000 0.300000
v 0.100000 0.500000 -0.100000
v -0.100000 0.500000 -0.100000
v 0.100000 0.500000 -0.000000
v -0.100000 0.500000 -0.000000
v 0.100000 0.500000 0.100000
v -0.100000 0.500000 0.100000
v 0.100000 0.500000 0.200000
v -0.100000 0.500000 0.200000
v 0.100000 0.600000 -0.000000
v -0.100000 0.600000 -0.000000
v 0.100000 0.600000 0.100000
v -0.100000 0.600000 0.100000
v 0.200000 0.000000 0.300000
v 0.200000 0.100000 0.200000
v 0.200000 0.100000 0.300000
v 0.200000 0.200000 0.200000
v 0.200000 0.500000 -0.000000
v 0.200000 0.500000 0.100000
v 0.100000 0.100000 -0.400000
v 0.100000 -0.000000 -0.200000
v 0.100000 -0.000000 -0.400000
v 0.100000 0.100000 -0.300000
v 0.100000 0.200000 -0.300000
v -0.100000 0.100000 0.100000
v -0.100000 0.000000 0.300000
v -0.100000 0.000000 0.100000
v -0.100000 0.100000 0.200000
v -0.100000 0.100000 0.300000
v 0.100000 0.000000 0.100000
v 0.100000 0.000000 0.300000
v 0.100000 0.100000 0.100000
v 0.100000 0.100000 0.200000
v 0.100000 0.100000 0.300000
v -0.100000 -0.000000 -0.400000
v -0.100000 -0.000000 -0.200000
v -0.100000 0.100000 -0.400000
v -0.100000 0.100000 -0.300000
v -0.100000 0.200000 -0.300000
v -0.200000 0.000000 0.300000
v -0.200000 0.100000 0.200000
v -0.200000 0.100000 0.300000
v -0.200000 0.200000 0.200000
v -0.200000 0.500000 -0.000000
v -0.200000 0.500000 0.100000
v -0.100000 -0.000000 -0.400000
v 0.100000 0.100000 -0.400000
v 0.100000 -0.000000 -0.400000
v -0.100000 0.100000 -0.400000
v -0.100000 0.100000 -0.300000
v 0.100000 0.200000 -0.300000
v 0.100000 0.100000 -0.300000
v -0.100000 0.200000 -0.300000
v 0.100000 0.300000 -0.000000
v 0.200000 0.500000 -0.000000
v 0.200000 0.300000 -0.000000
v -0.200000 0.300000 -0.000000
v -0.100000 0.300000 -0.000000
v -0.200000 0.500000 -0.000000
v 0.200000 0.500000 0.100000
v 0.100000 0.000000 0.100000
v 0.100000 0.100000 0.100000
v -0.100000 0.000000 0.100000
v -0.100000 0.100000 0.100000
v -0.200000 0.500000 0.100000
v 0.200000 0.100000 0.200000
v 0.200000 0.200000 0.200000
v -0.200000 0.100000 0.200000
v -0.200000 0.200000 0.200000
v 0.200000 0.000000 0.300000
v 0.200000 0.100000 0.300000
v 0.100000 0.000000 0.300000
v 0.100000 0.100000 0.300000
v -0.100000 0.000000 0.300000
v -0.100000 0.100000 0.300000
v -0.200000 0.000000 0.300000
v -0.200000 0.100000 0.300000
v -0.100000 -0.000000 -0.400000
v 0.100000 -0.000000 -0.400000
v 0.100000 0.000000 0.100000
v -0.100000 0.000000 0.100000
v 0.200000 0.000000 0.300000
v 0.100000 0.000000 0.300000
v -0.100000 0.000000 0.300000
v -0.200000 0.000000 0.300000
v 0.100000 0.100000 -0.400000
v -0.100000 0.100000 -0.400000
v 0.100000 0.100000 -0.300000
v -0.100000 0.100000 -0.300000
v 0.200000 0.100000 0.200000
v 0.100000 0.100000 0.200000
v 0.200000 0.100000 0.300000
v 0.100000 0.100000 0.300000
v -0.100000 0.100000 0.200000
v -0.200000 0.100000 0.200000
v -0.100000 0.100000 0.300000
v -0.200000 0.100000 0.300000
v 0.100000 0.200000 -0.300000
v -0.100000 0.200000 -0.300000
v 0.200000 0.200000 0.100000
v 0.200000 0.200000 0.200000
v -0.200000 0.200000 0.100000
v -0.200000 0.200000 0.200000
v 0.200000 0.500000 -0.000000
v 0.200000 0.500000 0.100000
v -0.200000 0.500000 -0.000000
v -0.200000 0.500000 0.100000
vt 0.978516 0.500000
vt 0.978516 0.500000
vt 0.978516 0.500000
vt 0.978516 0.500000
vt 0.978516 0.500000
vt 0.978516 0.500000
vt 0.978516 0.500000
vt 0.978516 0.500000
vt 0.978516 0.500000
vt 0.978516 0.500000
vt 0.978516 0.500000
vt 0.978516 0.500000
vt 0.978516 0.500000
vt 0.978516 0.500000
vt 0.978516 0.500000
vt 0.978516 0.500000
vt 0.978516 0.500000
vt 0.978516 0.500000
vt 0.978516 0.500000
vt 0.978516 0.500000
vt 0.978516 0.500000
vt 0.978516 0.500000
vt 0.978516 0.500000
vt 0.978516 0.500000
vt 0.978516 0.500000
vt 0.978516 0.500000
vt 0.978516 0.500000
vt 0.978516 0.500000
vt 0.978516 0.500000
vt 0.978516 0.500000
vt 0.978516 0.500000
vt 0.978516 0.500000
vt 0.978516 0.500000
vt 0.978516 0.500000
vt 0.978516 0.500000
vt 0.978516 0.500000
vt 0.978516 0.500000
vt 0.978516 0.500000
vt 0.978516 0.500000
vt 0.978516 0.500000
vt 0.978516 0.500000
vt 0.978516 0.500000
vt 0.978516 0.500000
vt 0.978516 0.500000
vt 0.978516 0.500000
vt 0.978516 0.500000
vt 0.978516 0.500000
vt 0.978516 0.500000
vt 0.978516 0.500000
vt 0.978516 0.500000
vt 0.978516 0.500000
vt 0.978516 0.500000
vt 0.978516 0.500000
vt 0.978516 0.500000
vt 0.978516 0.500000
vt 0.978516 0.500000
vt 0.978516 0.500000
vt 0.978516 0.500000
vt 0.978516 0.500000
vt 0.978516 0.500000
vt 0.978516 0.500000
vt 0.978516 0.500000
vt 0.978516 0.500000
vt 0.978516 0.500000
vt 0.978516 0.500000
vt 0.978516 0.500000
vt 0.978516 0.500000
vt 0.978516 0.500000
vt 0.978516 0.500000
vt 0.978516 0.500000
vt 0.978516 0.500000
vt 0.978516 0.500000
vt 0.978516 0.500000
vt 0.978516 0.500000
vt 0.978516 0.500000
vt 0.978516 0.500000
vt 0.978516 0.500000
vt 0.978516 0.500000
vt 0.978516 0.500000
vt 0.978516 0.500000
vt 0.978516 0.500000
vt 0.978516 0.500000
vt 0.978516 0.500000
vt 0.978516 0.500000
vt 0.978516 0.500000
vt 0.978516 0.500000
vt 0.978516 0.500000
vt 0.978516 0.500000
vt 0.978516 0.500000
vt 0.978516 0.500000
vt 0.978516 0.500000
vt 0.978516 0.500000
vt 0.978516 0.500000
vt 0.978516 0.500000
vt 0.978516 0.500000
vt 0.978516 0.500000
vt 0.978516 0.500000
vt 0.978516 0.500000
vt 0.978516 0.500000
vt 0.978516 0.500000
vt 0.978516 0.500000
vt 0.978516 0.500000
vt 0.978516 0.500000
vt 0.978516 0.500000
vt 0.978516 0.500000
vt 0.978516 0.500000
vt 0.978516 0.500000
vt 0.978516 0.500000
vt 0.978516 0.500000
vt 0.978516 0.500000
vt 0.978516 0.500000
vt 0.978516 0.500000
vt 0.978516 0.500000
vt 0.978516 0.500000
vt 0.978516 0.500000
vt 0.978516 0.500000
vt 0.978516 0.500000
vt 0.978516 0.500000
vt 0.978516 0.500000
vt 0.978516 0.500000
vt 0.978516 0.500000
vt 0.978516 0.500000
vt 0.978516 0.500000
vt 0.978516 0.500000
vt 0.978516 0.500000
vt 0.978516 0.500000
vt 0.978516 0.500000
vt 0.978516 0.500000
vt 0.978516 0.500000
vt 0.978516 0.500000
vt 0.978516 0.500000
vt 0.978516 0.500000
vt 0.978516 0.500000
vt 0.978516 0.500000
vt 0.978516 0.500000
vt 0.978516 0.500000
vt 0.978516 0.500000
vt 0.978516 0.500000
vt 0.978516 0.500000
vt 0.978516 0.500000
vt 0.978516 0.500000
vt 0.978516 0.500000
vt 0.978516 0.500000
vt 0.978516 0.500000
vt 0.978516 0.500000
vt 0.978516 0.500000
vt 0.978516 0.500000
vt 0.978516 0.500000
vt 0.978516 0.500000
vt 0.978516 0.500000
vt 0.978516 0.500000
vt 0.978516 0.500000
vt 0.978516 0.500000
vt 0.978516 0.500000
vt 0.978516 0.500000
vt 0.978516 0.500000
vt 0.958984 0.500000
vt 0.958984 0.500000
vt 0.958984 0.500000
vt 0.958984 0.500000
vt 0.958984 0.500000
vt 0.958984 0.500000
vt 0.958984 0.500000
vt 0.958984 0.500000
vt 0.958984 0.500000
vt 0.958984 0.500000
vt 0.958984 0.500000
vt 0.958984 0.500000
vt 0.958984 0.500000
vt 0.958984 0.500000
vt 0.958984 0.500000
vt 0.958984 0.500000
vt 0.958984 0.500000
vt 0.958984 0.500000
vt 0.958984 0.500000
vt 0.958984 0.500000
vt 0.958984 0.500000
vt 0.958984 0.500000
vt 0.958984 0.500000
vt 0.958984 0.500000
vt 0.958984 0.500000
vt 0.958984 0.500000
vt 0.958984 0.500000
vt 0.958984 0.500000
vt 0.958984 0.500000
vt 0.958984 0.500000
vt 0.958984 0.500000
vt 0.958984 0.500000
vt 0.958984 0.500000
vt 0.958984 0.500000
vt 0.958984 0.500000
vt 0.958984 0.500000
vt 0.958984 0.500000
vt 0.958984 0.500000
vt 0.958984 0.500000
vt 0.958984 0.500000
vt 0.958984 0.500000
vt 0.958984 0.500000
vt 0.958984 0.500000
vt 0.958984 0.500000
vt 0.958984 0.500000
vt 0.958984 0.500000
vt 0.958984 0.500000
vt 0.958984 0.500000
vt 0.958984 0.500000
vt 0.958984 0.500000
vt 0.958984 0.500000
vt 0.958984 0.500000
vt 0.958984 0.500000
vt 0.958984 0.500000
vt 0.958984 0.500000
vt 0.958984 0.500000
vt 0.958984 0.500000
vt 0.958984 0.500000
vt 0.958984 0.500000
vt 0.958984 0.500000
vt 0.958984 0.500000
vt 0.958984 0.500000
vt 0.958984 0.500000
vt 0.958984 0.500000
vt 0.958984 0.500000
vt 0.958984 0.500000
vt 0.958984 0.500000
vt 0.958984 0.500000
vt 0.958984 0.500000
vt 0.958984 0.500000
vt 0.958984 0.500000
vt 0.958984 0.500000
vt 0.958984 0.500000
vt 0.958984 0.500000
vt 0.958984 0.500000
vt 0.958984 0.500000
vt 0.958984 0.500000
vt 0.958984 0.500000
vt 0.958984 0.500000
vt 0.958984 0.500000
vt 0.958984 0.500000
vt 0.958984 0.500000
vt 0.958984 0.500000
vt 0.958984 0.500000
vt 0.958984 0.500000
vt 0.958984 0.500000
vt 0.958984 0.500000
vt 0.958984 0.500000
vt 0.958984 0.500000
vt 0.958984 0.500000
vt 0.958984 0.500000
vt 0.958984 0.500000
vt 0.958984 0.500000
vt 0.958984 0.500000
vt 0.958984 0.500000
vt 0.958984 0.500000
vt 0.958984 0.500000
vt 0.958984 0.500000
vt 0.958984 0.500000
vt 0.958984 0.500000
vt 0.958984 0.500000
vt 0.958984 0.500000
vt 0.958984 0.500000
vt 0.958984 0.500000
vt 0.958984 0.500000
vt 0.958984 0.500000
vt 0.958984 0.500000
vt 0.958984 0.500000
vt 0.958984 0.500000
vt 0.958984 0.500000
vt 0.958984 0.500000
vt 0.958984 0.500000
vt 0.958984 0.500000
vt 0.958984 0.500000
vt 0.958984 0.500000
vt 0.958984 0.500000
vt 0.958984 0.500000
vt 0.958984 0.500000
vt 0.958984 0.500000
vt 0.958984 0.500000
vt 0.958984 0.500000
vt 0.958984 0.500000
vt 0.958984 0.500000
vt 0.958984 0.500000
vt 0.958984 0.500000
vt 0.958984 0.500000
vt 0.958984 0.500000
vt 0.958984 0.500000
vt 0.958984 0.500000
vt 0.958984 0.500000
vt 0.958984 0.500000
vt 0.958984 0.500000
vt 0.958984 0.500000
vt 0.958984 0.500000
vn 1.0000 0.0000 0.0000
vn -1.0000 0.0000 0.0000
vn 0.0000 -0.0000 -1.0000
vn 0.0000 0.0000 1.0000
vn 0.0000 -1.0000 0.0000
vn 0.0000 1.0000 -0.0000
usemtl M2.002
s 1
f 1/1/1 2/2/1 3/3/1
f 4/4/1 1/1/1 3/3/1
f 4/4/1 5/5/1 1/1/1
f 6/6/1 5/5/1 4/4/1
f 7/7/1 5/5/1 6/6/1
f 8/8/1 7/7/1 6/6/1
f 9/9/1 7/7/1 8/8/1
f 10/10/1 7/7/1 9/9/1
f 11/11/1 12/12/1 13/13/1
f 14/14/1 11/11/1 13/13/1
f 14/14/1 15/15/1 11/11/1
f 16/16/1 15/15/1 14/14/1
f 17/17/1 18/18/1 19/19/1
f 20/20/1 18/18/1 17/17/1
f 21/21/1 15/15/1 16/16/1
f 22/22/1 15/15/1 21/21/1
f 23/23/1 17/17/1 19/19/1
f 24/24/1 17/17/1 23/23/1
f 25/25/1 23/23/1 22/22/1
f 26/26/1 23/23/1 25/25/1
f 27/27/2 28/28/2 29/29/2
f 27/27/2 29/29/2 30/30/2
f 29/29/2 31/31/2 30/30/2
f 30/30/2 31/31/2 32/32/2
f 33/33/2 34/34/2 35/35/2
f 35/35/2 34/34/2 36/36/2
f 32/32/2 31/31/2 37/37/2
f 37/37/2 31/31/2 38/38/2
f 33/33/2 35/35/2 39/39/2
f 39/39/2 35/35/2 40/40/2
f 38/38/2 39/39/2 41/41/2
f 41/41/2 39/39/2 42/42/2
f 43/43/2 44/44/2 45/45/2
f 43/43/2 45/45/2 46/46/2
f 45/45/2 47/47/2 46/46/2
f 46/46/2 47/47/2 48/48/2
f 48/48/2 47/47/2 49/49/2
f 48/48/2 49/49/2 50/50/2
f 50/50/2 49/49/2 51/51/2
f 51/51/2 49/49/2 52/52/2
f 53/53/3 54/54/3 55/55/3
f 56/56/3 54/54/3 53/53/3
f 57/57/3 58/58/3 56/56/3
f 59/59/3 58/58/3 57/57/3
f 60/60/3 57/57/3 61/61/3
f 62/62/3 57/57/3 60/60/3
f 63/63/3 64/64/3 65/65/3
f 66/66/3 64/64/3 63/63/3
f 67/67/3 68/68/3 69/69/3
f 70/70/3 68/68/3 67/67/3
f 71/71/3 72/72/3 73/73/3
f 74/74/3 72/72/3 71/71/3
f 75/75/3 76/76/3 77/77/3
f 78/78/3 76/76/3 75/75/3
f 79/79/4 80/80/4 81/81/4
f 81/81/4 80/80/4 82/82/4
f 81/81/4 82/82/4 83/83/4
f 83/83/4 82/82/4 84/84/4
f 85/85/4 86/86/4 87/87/4
f 87/87/4 86/86/4 88/88/4
f 83/83/4 84/84/4 89/89/4
f 89/89/4 84/84/4 90/90/4
f 91/91/4 92/92/4 93/93/4
f 93/93/4 92/92/4 94/94/4
f 95/95/4 96/96/4 97/97/4
f 97/97/4 96/96/4 98/98/4
f 99/99/4 100/100/4 101/101/4
f 101/101/4 100/100/4 102/102/4
f 103/103/5 104/104/5 105/105/5
f 103/103/5 106/106/5 107/107/5
f 103/103/5 107/107/5 104/104/5
f 108/108/5 106/106/5 103/103/5
f 109/109/5 110/110/5 111/111/5
f 112/112/5 110/110/5 109/109/5
f 113/113/5 114/114/5 115/115/5
f 116/116/5 114/114/5 113/113/5
f 117/117/6 118/118/6 119/119/6
f 119/119/6 118/118/6 120/120/6
f 121/121/6 122/122/6 123/123/6
f 123/123/6 122/122/6 124/124/6
f 125/125/6 126/126/6 127/127/6
f 127/127/6 126/126/6 128/128/6
f 129/129/6 130/130/6 131/131/6
f 131/131/6 130/130/6 132/132/6
f 133/133/6 134/134/6 135/135/6
f 135/135/6 134/134/6 136/136/6
f 137/137/6 138/138/6 139/139/6
f 139/139/6 138/138/6 140/140/6
f 141/141/6 142/142/6 143/143/6
f 143/143/6 142/142/6 144/144/6
f 145/145/6 146/146/6 147/147/6
f 147/147/6 146/146/6 148/148/6
f 149/149/6 150/150/6 151/151/6
f 151/151/6 150/150/6 152/152/6
f 153/153/6 154/154/6 155/155/6
f 155/155/6 154/154/6 156/156/6
usemtl M1.002
f 1/157/1 157/158/1 2/159/1
f 5/160/1 157/158/1 1/157/1
f 158/161/1 157/158/1 5/160/1
f 159/162/1 157/158/1 158/161/1
f 7/163/1 158/161/1 5/160/1
f 160/164/1 158/161/1 7/163/1
f 161/165/1 10/166/1 9/167/1
f 162/168/1 10/166/1 161/165/1
f 163/169/1 164/170/1 165/171/1
f 166/172/1 164/170/1 163/169/1
f 167/173/1 164/170/1 166/172/1
f 13/174/1 164/170/1 167/173/1
f 168/175/1 169/176/1 170/177/1
f 171/178/1 169/176/1 168/175/1
f 172/179/1 169/176/1 171/178/1
f 173/180/2 174/181/2 175/182/2
f 175/182/2 174/181/2 176/183/2
f 176/183/2 174/181/2 177/184/2
f 178/185/2 179/186/2 180/187/2
f 180/187/2 179/186/2 181/188/2
f 181/188/2 179/186/2 182/189/2
f 182/189/2 179/186/2 27/190/2
f 44/191/2 183/192/2 45/193/2
f 45/193/2 183/192/2 47/194/2
f 47/194/2 183/192/2 184/195/2
f 184/195/2 183/192/2 185/196/2
f 47/194/2 184/195/2 49/197/2
f 49/197/2 184/195/2 186/198/2
f 51/199/2 52/200/2 187/201/2
f 187/201/2 52/200/2 188/202/2
f 189/203/3 190/204/3 191/205/3
f 192/206/3 190/204/3 189/203/3
f 193/207/3 194/208/3 195/209/3
f 196/210/3 194/208/3 193/207/3
f 197/211/3 198/212/3 199/213/3
f 77/214/3 198/212/3 197/211/3
f 200/215/3 75/216/3 201/217/3
f 202/218/3 75/216/3 200/215/3
f 80/219/4 203/220/4 82/221/4
f 82/221/4 203/220/4 85/222/4
f 204/223/4 205/224/4 206/225/4
f 206/225/4 205/224/4 207/226/4
f 84/227/4 87/228/4 90/229/4
f 90/229/4 87/228/4 208/230/4
f 209/231/4 210/232/4 91/233/4
f 91/233/4 210/232/4 92/234/4
f 93/235/4 94/236/4 211/237/4
f 211/237/4 94/236/4 212/238/4
f 213/239/4 214/240/4 215/241/4
f 215/241/4 214/240/4 216/242/4
f 217/243/4 218/244/4 219/245/4
f 219/245/4 218/244/4 220/246/4
f 104/247/5 221/248/5 222/249/5
f 107/250/5 221/248/5 104/247/5
f 223/251/5 108/252/5 103/253/5
f 224/254/5 108/252/5 223/251/5
f 225/255/5 223/251/5 103/253/5
f 226/256/5 223/251/5 225/255/5
f 227/257/5 108/252/5 224/254/5
f 228/258/5 108/252/5 227/257/5
f 229/259/6 230/260/6 231/261/6
f 231/261/6 230/260/6 232/262/6
f 233/263/6 234/264/6 235/265/6
f 235/265/6 234/264/6 236/266/6
f 237/267/6 238/268/6 239/269/6
f 239/269/6 238/268/6 240/270/6
f 241/271/6 242/272/6 118/273/6
f 118/273/6 242/272/6 121/274/6
f 243/275/6 125/276/6 244/277/6
f 244/277/6 125/276/6 127/278/6
f 126/279/6 245/280/6 128/281/6
f 128/281/6 245/280/6 246/282/6
f 247/283/6 147/284/6 248/285/6
f 248/285/6 147/284/6 149/286/6
f 148/287/6 249/288/6 150/289/6
f 150/289/6 249/288/6 250/290/6
